<svg xmlns="http://www.w3.org/2000/svg" width="1280" height="520" viewBox="0 0 1280 520" role="img" aria-label="00-04 图文配合" font-family="Microsoft YaHei, Noto Sans CJK SC, PingFang SC, sans-serif">
  <rect x="22" y="22" width="1236" height="476" rx="24" fill="#fffaf0" stroke="#3a342c" stroke-width="2.4"/>
  <text x="54" y="66" fill="#2f2a24" font-size="24" font-weight="700">00-04 图文配合：一份文档解决一个主要理解门槛</text>
  <text x="54" y="96" fill="#5f5548" font-size="14">每份文档都可以有图，但主视觉不同。图要服务该文档的出口能力，不重复上一份文档的任务。</text>

  <g transform="translate(54 132)">
    <rect width="188" height="260" rx="18" fill="#f8f3e8" stroke="#3a342c" stroke-width="1.8"/>
    <text x="22" y="34" fill="#2f2a24" font-size="18" font-weight="700">00 材料导读</text>
    <text x="22" y="66" fill="#5f5548" font-size="13">问题：怎么读</text>
    <path d="M40 112 L86 112 L86 84 L132 84 M86 112 L86 142 L132 142" fill="none" stroke="#3a342c" stroke-width="1.6"/>
    <rect x="22" y="98" width="42" height="28" rx="9" fill="#bfd7ea" stroke="#3a342c" stroke-width="1.2"/>
    <rect x="132" y="70" width="38" height="28" rx="9" fill="#d8eac8" stroke="#3a342c" stroke-width="1.2"/>
    <rect x="132" y="128" width="38" height="28" rx="9" fill="#f2b6a0" stroke="#3a342c" stroke-width="1.2"/>
    <text x="22" y="196" fill="#2f2a24" font-size="13">主图：阅读决策</text>
    <text x="22" y="220" fill="#5f5548" font-size="12">知道先读什么</text>
    <text x="22" y="240" fill="#5f5548" font-size="12">以及何时回看</text>
  </g>

  <path d="M250 262 L286 262" stroke="#3a342c" stroke-width="2"/>
  <path d="M286 262 l-9 -6 v12 z" fill="#3a342c"/>

  <g transform="translate(296 132)">
    <rect width="188" height="260" rx="18" fill="#f8f3e8" stroke="#3a342c" stroke-width="1.8"/>
    <text x="22" y="34" fill="#2f2a24" font-size="18" font-weight="700">01 基础画像</text>
    <text x="22" y="66" fill="#5f5548" font-size="13">问题：老师是谁</text>
    <line x1="52" y1="88" x2="52" y2="160" stroke="#3a342c" stroke-width="1.6"/>
    <circle cx="52" cy="98" r="7" fill="#bfd7ea" stroke="#3a342c" stroke-width="1.2"/>
    <circle cx="52" cy="128" r="7" fill="#d8eac8" stroke="#3a342c" stroke-width="1.2"/>
    <circle cx="52" cy="158" r="7" fill="#f2b6a0" stroke="#3a342c" stroke-width="1.2"/>
    <rect x="76" y="88" width="78" height="20" rx="7" fill="#bfd7ea" stroke="#3a342c" stroke-width="1"/>
    <rect x="76" y="118" width="78" height="20" rx="7" fill="#d8eac8" stroke="#3a342c" stroke-width="1"/>
    <rect x="76" y="148" width="78" height="20" rx="7" fill="#f2b6a0" stroke="#3a342c" stroke-width="1"/>
    <text x="22" y="196" fill="#2f2a24" font-size="13">主图：履历 + 论文矩阵</text>
    <text x="22" y="220" fill="#5f5548" font-size="12">锁定身份和资料</text>
    <text x="22" y="240" fill="#5f5548" font-size="12">给后文提供材料</text>
  </g>

  <path d="M492 262 L528 262" stroke="#3a342c" stroke-width="2"/>
  <path d="M528 262 l-9 -6 v12 z" fill="#3a342c"/>

  <g transform="translate(538 132)">
    <rect width="188" height="260" rx="18" fill="#f8f3e8" stroke="#3a342c" stroke-width="1.8"/>
    <text x="22" y="34" fill="#2f2a24" font-size="18" font-weight="700">02 领域地图</text>
    <text x="22" y="66" fill="#5f5548" font-size="13">问题：方向在哪</text>
    <circle cx="70" cy="124" r="42" fill="#bfd7ea" fill-opacity=".75" stroke="#3a342c" stroke-width="1.4"/>
    <circle cx="122" cy="124" r="34" fill="#d8eac8" fill-opacity=".75" stroke="#3a342c" stroke-width="1.4"/>
    <circle cx="96" cy="118" r="18" fill="#f2b6a0" fill-opacity=".88" stroke="#3a342c" stroke-width="1.4"/>
    <text x="22" y="196" fill="#2f2a24" font-size="13">主图：领域地形</text>
    <text x="22" y="220" fill="#5f5548" font-size="12">建立范围感</text>
    <text x="22" y="240" fill="#5f5548" font-size="12">和相邻方向</text>
  </g>

  <path d="M734 262 L770 262" stroke="#3a342c" stroke-width="2"/>
  <path d="M770 262 l-9 -6 v12 z" fill="#3a342c"/>

  <g transform="translate(780 132)">
    <rect width="188" height="260" rx="18" fill="#f8f3e8" stroke="#3a342c" stroke-width="1.8"/>
    <text x="22" y="34" fill="#2f2a24" font-size="18" font-weight="700">03 论文路线</text>
    <text x="22" y="66" fill="#5f5548" font-size="13">问题：论文怎样分工</text>
    <rect x="60" y="106" width="68" height="36" rx="11" fill="#f2e7c9" stroke="#3a342c" stroke-width="1.3"/>
    <rect x="18" y="82" width="52" height="24" rx="8" fill="#bfd7ea" stroke="#3a342c" stroke-width="1.1"/>
    <rect x="18" y="150" width="52" height="24" rx="8" fill="#f2b6a0" stroke="#3a342c" stroke-width="1.1"/>
    <rect x="122" y="82" width="52" height="24" rx="8" fill="#d8eac8" stroke="#3a342c" stroke-width="1.1"/>
    <line x1="70" y1="94" x2="82" y2="106" stroke="#5f5548" stroke-width="1.2"/>
    <line x1="70" y1="162" x2="82" y2="142" stroke="#5f5548" stroke-width="1.2"/>
    <line x1="128" y1="106" x2="148" y2="94" stroke="#5f5548" stroke-width="1.2"/>
    <text x="22" y="196" fill="#2f2a24" font-size="13">主图：论文角色</text>
    <text x="22" y="220" fill="#5f5548" font-size="12">找中心问题</text>
    <text x="22" y="240" fill="#5f5548" font-size="12">区分主线旁支</text>
  </g>

  <path d="M976 262 L1012 262" stroke="#3a342c" stroke-width="2"/>
  <path d="M1012 262 l-9 -6 v12 z" fill="#3a342c"/>

  <g transform="translate(1022 132)">
    <rect width="188" height="260" rx="18" fill="#f8f3e8" stroke="#3a342c" stroke-width="1.8"/>
    <text x="22" y="34" fill="#2f2a24" font-size="18" font-weight="700">04 学习向导</text>
    <text x="22" y="66" fill="#5f5548" font-size="13">问题：怎么学到能读</text>
    <rect x="20" y="98" width="46" height="30" rx="9" fill="#bfd7ea" stroke="#3a342c" stroke-width="1.2"/>
    <rect x="84" y="88" width="58" height="50" rx="11" fill="#d8eac8" stroke="#3a342c" stroke-width="1.2"/>
    <rect x="156" y="98" width="24" height="30" rx="9" fill="#f2b6a0" stroke="#3a342c" stroke-width="1.2"/>
    <line x1="66" y1="113" x2="84" y2="113" stroke="#3a342c" stroke-width="1.5"/>
    <line x1="142" y1="113" x2="156" y2="113" stroke="#3a342c" stroke-width="1.5"/>
    <text x="43" y="117" fill="#2f2a24" font-size="10" text-anchor="middle">已会</text>
    <text x="113" y="108" fill="#2f2a24" font-size="10" text-anchor="middle">缺口</text>
    <text x="113" y="124" fill="#2f2a24" font-size="10" text-anchor="middle">任务</text>
    <text x="168" y="117" fill="#2f2a24" font-size="10" text-anchor="middle">出</text>
    <text x="22" y="196" fill="#2f2a24" font-size="13">主图：学习桥</text>
    <text x="22" y="220" fill="#5f5548" font-size="12">从课程基础</text>
    <text x="22" y="240" fill="#5f5548" font-size="12">走到论文任务</text>
  </g>

  <rect x="96" y="424" width="1088" height="42" rx="12" fill="#f8f3e8" stroke="#3a342c" stroke-width="1.6"/>
  <text x="120" y="451" fill="#5f5548" font-size="14">读法：每份文档只承担一个主要理解门槛。后文可以回看前文，但不能重复前文的主视觉任务。</text>
</svg>
