<svg xmlns="http://www.w3.org/2000/svg" width="760" height="330" viewBox="0 0 760 330" role="img" aria-label="论文角色地图示例" font-family="Microsoft YaHei, Noto Sans CJK SC, PingFang SC, sans-serif">
  <rect x="26" y="24" width="708" height="260" rx="22" fill="#fffaf0" stroke="#3a342c" stroke-width="2.4"/>
  <path d="M300 144 L214 92" fill="none" stroke="#5f5548" stroke-width="1.6" stroke-linecap="round"/>
  <path d="M464 144 L552 92" fill="none" stroke="#5f5548" stroke-width="1.6" stroke-linecap="round"/>
  <path d="M300 164 L210 224" fill="none" stroke="#5f5548" stroke-width="1.6" stroke-linecap="round"/>
  <path d="M464 164 L552 224" fill="none" stroke="#5f5548" stroke-width="1.6" stroke-linecap="round" stroke-dasharray="7 5"/>
  <rect x="300" y="118" width="164" height="64" rx="18" fill="#f2e7c9"/>
  <rect x="300" y="118" width="164" height="64" rx="18" fill="none" stroke="#3a342c" stroke-width="2.2"/>
  <text x="332" y="145" fill="#2f2a24" font-size="15">共同问题</text>
  <text x="325" y="168" fill="#5f5548" font-size="12.5">这组论文到底追什么</text>
  <rect x="140" y="64" width="148" height="56" rx="16" fill="#bfd7ea"/>
  <rect x="140" y="64" width="148" height="56" rx="16" fill="none" stroke="#3a342c" stroke-width="2.2"/>
  <text x="184" y="98" fill="#2f2a24" font-size="15">底座论文</text>
  <rect x="476" y="64" width="148" height="56" rx="16" fill="#d8eac8"/>
  <rect x="476" y="64" width="148" height="56" rx="16" fill="none" stroke="#3a342c" stroke-width="2.2"/>
  <text x="520" y="98" fill="#2f2a24" font-size="15">方法工具</text>
  <rect x="140" y="196" width="148" height="56" rx="16" fill="#f2b6a0"/>
  <rect x="140" y="196" width="148" height="56" rx="16" fill="none" stroke="#3a342c" stroke-width="2.2"/>
  <text x="184" y="230" fill="#2f2a24" font-size="15">目标论文</text>
  <rect x="486" y="196" width="132" height="56" rx="16" fill="#f2e7c9"/>
  <rect x="486" y="196" width="132" height="56" rx="16" fill="none" stroke="#5f5548" stroke-width="1.6" stroke-dasharray="7 5"/>
  <text x="522" y="230" fill="#2f2a24" font-size="15">旁支</text>
  <text x="46" y="304" fill="#5f5548" font-size="13">读法：先看中心问题，再看实线节点。虚线节点可以保留为线索，正文不要把它写成主线。</text>
</svg>
