<svg xmlns="http://www.w3.org/2000/svg" width="980" height="820" viewBox="0 0 980 820" role="img" aria-label="可视化类型总览" font-family="Microsoft YaHei, Noto Sans CJK SC, PingFang SC, sans-serif">
  <rect x="20" y="20" width="940" height="780" rx="24" fill="#fffaf0" stroke="#3a342c" stroke-width="2.4"/>
  <text x="50" y="62" fill="#2f2a24" font-size="24" font-weight="700">可视化类型总览：先看关系，再选图形</text>
  <text x="50" y="92" fill="#5f5548" font-size="14">每个小图只展示轮廓，正式成品必须换成真实数据、读法和证据边界。</text>

  <g transform="translate(50 125)">
    <rect width="420" height="120" rx="16" fill="#f8f3e8" stroke="#3a342c" stroke-width="1.8"/>
    <text x="20" y="30" fill="#2f2a24" font-size="17" font-weight="700">组成 / 范围图</text>
    <circle cx="118" cy="74" r="36" fill="#bfd7ea" fill-opacity=".78" stroke="#3a342c" stroke-width="1.8"/>
    <circle cx="188" cy="72" r="30" fill="#d8eac8" fill-opacity=".78" stroke="#3a342c" stroke-width="1.8"/>
    <circle cx="156" cy="70" r="20" fill="#f2b6a0" fill-opacity=".82" stroke="#3a342c" stroke-width="1.8"/>
    <text x="245" y="64" fill="#5f5548" font-size="13">看板块组成</text>
    <text x="245" y="84" fill="#5f5548" font-size="13">和粗略大小</text>
  </g>

  <g transform="translate(510 125)">
    <rect width="420" height="120" rx="16" fill="#f8f3e8" stroke="#3a342c" stroke-width="1.8"/>
    <text x="20" y="30" fill="#2f2a24" font-size="17" font-weight="700">层级 / 包含图</text>
    <rect x="72" y="48" width="170" height="52" rx="14" fill="#bfd7ea" fill-opacity=".45" stroke="#3a342c" stroke-width="1.7"/>
    <rect x="98" y="60" width="120" height="28" rx="10" fill="#d8eac8" stroke="#3a342c" stroke-width="1.7"/>
    <rect x="140" y="66" width="58" height="16" rx="8" fill="#f2b6a0" stroke="#3a342c" stroke-width="1.4"/>
    <text x="260" y="64" fill="#5f5548" font-size="13">看大类怎样</text>
    <text x="260" y="84" fill="#5f5548" font-size="13">收束到问题域</text>
  </g>

  <g transform="translate(50 265)">
    <rect width="420" height="120" rx="16" fill="#f8f3e8" stroke="#3a342c" stroke-width="1.8"/>
    <text x="20" y="30" fill="#2f2a24" font-size="17" font-weight="700">二维定位图</text>
    <line x1="78" y1="94" x2="215" y2="94" stroke="#3a342c" stroke-width="1.8"/>
    <line x1="78" y1="94" x2="78" y2="46" stroke="#3a342c" stroke-width="1.8"/>
    <line x1="146" y1="94" x2="146" y2="46" stroke="#d6c8ad" stroke-width="1.4" stroke-dasharray="5 4"/>
    <line x1="78" y1="70" x2="215" y2="70" stroke="#d6c8ad" stroke-width="1.4" stroke-dasharray="5 4"/>
    <circle cx="182" cy="58" r="10" fill="#f2b6a0" stroke="#3a342c" stroke-width="1.5"/>
    <circle cx="118" cy="78" r="9" fill="#bfd7ea" stroke="#3a342c" stroke-width="1.5"/>
    <text x="245" y="64" fill="#5f5548" font-size="13">同时看两个</text>
    <text x="245" y="84" fill="#5f5548" font-size="13">判断维度</text>
  </g>

  <g transform="translate(510 265)">
    <rect width="420" height="120" rx="16" fill="#f8f3e8" stroke="#3a342c" stroke-width="1.8"/>
    <text x="20" y="30" fill="#2f2a24" font-size="17" font-weight="700">关系网络图</text>
    <line x1="154" y1="72" x2="92" y2="52" stroke="#5f5548" stroke-width="1.6"/>
    <line x1="154" y1="72" x2="214" y2="52" stroke="#5f5548" stroke-width="1.6"/>
    <line x1="154" y1="72" x2="104" y2="98" stroke="#5f5548" stroke-width="1.6"/>
    <line x1="154" y1="72" x2="212" y2="98" stroke="#5f5548" stroke-width="1.6" stroke-dasharray="6 4"/>
    <circle cx="154" cy="72" r="22" fill="#f2e7c9" stroke="#3a342c" stroke-width="1.7"/>
    <circle cx="92" cy="52" r="14" fill="#bfd7ea" stroke="#3a342c" stroke-width="1.5"/>
    <circle cx="214" cy="52" r="14" fill="#d8eac8" stroke="#3a342c" stroke-width="1.5"/>
    <circle cx="104" cy="98" r="14" fill="#f2b6a0" stroke="#3a342c" stroke-width="1.5"/>
    <circle cx="212" cy="98" r="14" fill="#f2e7c9" stroke="#3a342c" stroke-width="1.5" stroke-dasharray="6 4"/>
    <text x="250" y="64" fill="#5f5548" font-size="13">看概念、论文</text>
    <text x="250" y="84" fill="#5f5548" font-size="13">或平台怎样连接</text>
  </g>

  <g transform="translate(50 405)">
    <rect width="420" height="120" rx="16" fill="#f8f3e8" stroke="#3a342c" stroke-width="1.8"/>
    <text x="20" y="30" fill="#2f2a24" font-size="17" font-weight="700">系统 / 平台链路图</text>
    <rect x="64" y="56" width="58" height="34" rx="10" fill="#bfd7ea" stroke="#3a342c" stroke-width="1.6"/>
    <rect x="150" y="56" width="58" height="34" rx="10" fill="#d8eac8" stroke="#3a342c" stroke-width="1.6"/>
    <rect x="236" y="56" width="58" height="34" rx="10" fill="#f2b6a0" stroke="#3a342c" stroke-width="1.6"/>
    <path d="M122 73 L150 73 M208 73 L236 73" fill="none" stroke="#3a342c" stroke-width="1.8"/>
    <text x="316" y="64" fill="#5f5548" font-size="13">看实验或平台</text>
    <text x="316" y="84" fill="#5f5548" font-size="13">从输入到输出</text>
  </g>

  <g transform="translate(510 405)">
    <rect width="420" height="120" rx="16" fill="#f8f3e8" stroke="#3a342c" stroke-width="1.8"/>
    <text x="20" y="30" fill="#2f2a24" font-size="17" font-weight="700">矩阵比较</text>
    <rect x="70" y="50" width="152" height="58" rx="8" fill="#fffaf0" stroke="#3a342c" stroke-width="1.5"/>
    <line x1="70" y1="70" x2="222" y2="70" stroke="#3a342c" stroke-width="1.2"/>
    <line x1="120" y1="50" x2="120" y2="108" stroke="#3a342c" stroke-width="1.2"/>
    <line x1="172" y1="50" x2="172" y2="108" stroke="#3a342c" stroke-width="1.2"/>
    <circle cx="95" cy="90" r="6" fill="#bfd7ea"/>
    <circle cx="146" cy="90" r="6" fill="#d8eac8"/>
    <circle cx="198" cy="90" r="6" fill="#f2b6a0"/>
    <text x="255" y="64" fill="#5f5548" font-size="13">按同一组字段</text>
    <text x="255" y="84" fill="#5f5548" font-size="13">比较多个对象</text>
  </g>

  <g transform="translate(50 545)">
    <rect width="420" height="120" rx="16" fill="#f8f3e8" stroke="#3a342c" stroke-width="1.8"/>
    <text x="20" y="30" fill="#2f2a24" font-size="17" font-weight="700">标注解剖图</text>
    <rect x="70" y="52" width="118" height="56" rx="10" fill="#fffaf0" stroke="#3a342c" stroke-width="1.6"/>
    <path d="M84 94 C110 82,128 64,156 80 S180 90,176 60" fill="none" stroke="#f2b6a0" stroke-width="3"/>
    <line x1="188" y1="62" x2="248" y2="46" stroke="#5f5548" stroke-width="1.4" stroke-dasharray="5 4"/>
    <line x1="146" y1="80" x2="248" y2="78" stroke="#5f5548" stroke-width="1.4" stroke-dasharray="5 4"/>
    <text x="258" y="50" fill="#5f5548" font-size="13">先读坐标</text>
    <text x="258" y="82" fill="#5f5548" font-size="13">再读变化</text>
  </g>

  <g transform="translate(510 545)">
    <rect width="420" height="120" rx="16" fill="#f8f3e8" stroke="#3a342c" stroke-width="1.8"/>
    <text x="20" y="30" fill="#2f2a24" font-size="17" font-weight="700">时间 / 路线图</text>
    <rect x="70" y="54" width="64" height="34" rx="12" fill="#bfd7ea" stroke="#3a342c" stroke-width="1.5"/>
    <rect x="168" y="54" width="64" height="34" rx="12" fill="#d8eac8" stroke="#3a342c" stroke-width="1.5"/>
    <rect x="266" y="54" width="64" height="34" rx="12" fill="#f2b6a0" stroke="#3a342c" stroke-width="1.5"/>
    <path d="M134 71 L168 71 M232 71 L266 71" fill="none" stroke="#3a342c" stroke-width="1.8"/>
    <text x="82" y="76" fill="#2f2a24" font-size="12">起点</text>
    <text x="180" y="76" fill="#2f2a24" font-size="12">中段</text>
    <text x="278" y="76" fill="#2f2a24" font-size="12">输出</text>
  </g>

  <g transform="translate(50 685)">
    <rect width="420" height="90" rx="16" fill="#f8f3e8" stroke="#3a342c" stroke-width="1.8"/>
    <text x="20" y="30" fill="#2f2a24" font-size="17" font-weight="700">证据风险图</text>
    <rect x="70" y="50" width="56" height="24" rx="8" fill="#d8eac8" stroke="#3a342c" stroke-width="1.3"/>
    <rect x="144" y="50" width="56" height="24" rx="8" fill="#f2e7c9" stroke="#3a342c" stroke-width="1.3" stroke-dasharray="6 4"/>
    <rect x="218" y="50" width="56" height="24" rx="8" fill="#efc0b6" stroke="#3a342c" stroke-width="1.3"/>
    <text x="300" y="60" fill="#5f5548" font-size="13">看判断强弱</text>
    <text x="300" y="78" fill="#5f5548" font-size="13">和复核点</text>
  </g>

  <g transform="translate(510 685)">
    <rect width="420" height="90" rx="16" fill="#f8f3e8" stroke="#3a342c" stroke-width="1.8"/>
    <text x="20" y="30" fill="#2f2a24" font-size="17" font-weight="700">覆盖 / 空白图</text>
    <rect x="76" y="46" width="64" height="30" rx="10" fill="#bfd7ea" stroke="#3a342c" stroke-width="1.4"/>
    <rect x="156" y="46" width="64" height="30" rx="10" fill="#d8eac8" stroke="#3a342c" stroke-width="1.4"/>
    <rect x="236" y="46" width="64" height="30" rx="10" fill="#fffaf0" stroke="#5f5548" stroke-width="1.4" stroke-dasharray="6 4"/>
    <text x="322" y="58" fill="#5f5548" font-size="13">看已有证据</text>
    <text x="322" y="76" fill="#5f5548" font-size="13">和缺口</text>
  </g>
</svg>
